<?xml version="1.0" encoding="UTF-8" standalone="no"?>
<svg
   xmlns:dc="http://purl.org/dc/elements/1.1/"
   xmlns:cc="http://creativecommons.org/ns#"
   xmlns:rdf="http://www.w3.org/1999/02/22-rdf-syntax-ns#"
   xmlns:svg="http://www.w3.org/2000/svg"
   xmlns="http://www.w3.org/2000/svg"
   xmlns:sodipodi="http://sodipodi.sourceforge.net/DTD/sodipodi-0.dtd"
   xmlns:inkscape="http://www.inkscape.org/namespaces/inkscape"
   version="1.0"
   viewBox="0 0 7220 4500"
   preserveAspectRatio="xMinYMin"
   id="svg122"
   sodipodi:docname="back.svg"
   inkscape:version="0.92.3 (2405546, 2018-03-11)">
  <metadata
     id="metadata128">
    <rdf:RDF>
      <cc:Work
         rdf:about="">
        <dc:format>image/svg+xml</dc:format>
        <dc:type
           rdf:resource="http://purl.org/dc/dcmitype/StillImage" />
        <dc:title />
      </cc:Work>
    </rdf:RDF>
  </metadata>
  <defs
     id="defs126" />
  <sodipodi:namedview
     pagecolor="#000000"
     bordercolor="#666666"
     borderopacity="1"
     objecttolerance="10"
     gridtolerance="10"
     guidetolerance="10"
     inkscape:pageopacity="0"
     inkscape:pageshadow="2"
     inkscape:window-width="1920"
     inkscape:window-height="1137"
     id="namedview124"
     showgrid="false"
     inkscape:pagecheckerboard="false"
     inkscape:zoom="0.12084488"
     inkscape:cx="7131.7321"
     inkscape:cy="2335.665"
     inkscape:window-x="-8"
     inkscape:window-y="-8"
     inkscape:window-maximized="1"
     inkscape:current-layer="layer102" />
  <g
     id="layer102"
     style="display:inline;fill:#575757;stroke:none;stroke-width:15;stroke-miterlimit:4;stroke-dasharray:none;stroke-opacity:1"
     inkscape:label="layer102">
    <path
       d="m 3520,2350 c -16,-16 -18,-25 -10,-40 6,-11 16,-20 22,-20 6,0 4,8 -6,19 -16,17 -16,20 0,35 15,16 18,16 36,0 16,-16 18,-16 13,-2 -10,26 -34,29 -55,8 z"
       id="path31"
       style="fill:#f2f2f2;stroke:none;stroke-width:15;stroke-miterlimit:4;stroke-dasharray:none;stroke-opacity:1"
       inkscape:connector-curvature="0" />
    <path
       d="m 3666,2354 c -22,-22 -20,-31 3,-10 18,16 20,16 36,0 17,-17 16,-19 -5,-36 -17,-14 -18,-18 -6,-18 8,0 20,9 26,21 9,16 8,25 -6,40 -21,23 -28,24 -48,3 z"
       id="path33"
       style="fill:#ececec;stroke:none;stroke-width:15;stroke-miterlimit:4;stroke-dasharray:none;stroke-opacity:1"
       inkscape:connector-curvature="0" />
    <path
       d="m 3601,2266 c -9,-10 -8,-16 3,-25 10,-9 16,-8 25,3 9,10 8,16 -3,25 -10,9 -16,8 -25,-3 z"
       id="path45"
       style="display:inline;fill:#ffffff;stroke:none;stroke-width:15;stroke-miterlimit:4;stroke-dasharray:none;stroke-opacity:1"
       inkscape:connector-curvature="0" />
    <path
       d="m 2868,2173 c 28,-2 76,-2 105,0 28,2 5,3 -53,3 -58,0 -81,-1 -52,-3 z"
       id="path53"
       style="display:inline;stroke:none;stroke-width:15;stroke-miterlimit:4;stroke-dasharray:none;stroke-opacity:1"
       inkscape:connector-curvature="0"
       inkscape:label="path53" />
    <path
       inkscape:connector-curvature="0"
       d="m 3540,2229 c 0,-7 8,-21 17,-31 20,-22 5,-45 -22,-34 -13,5 -16,13 -11,34 6,25 5,26 -9,8 -12.1213,-55.0379 10.2673,-55.8162 34.4746,-59.1211 31,12 39.5254,37.1211 14.5254,66.1211 -13,16 -24,23 -24,16 z"
       id="path49-6"
       style="display:inline;fill:#ffffff;stroke:none;stroke-width:15;stroke-miterlimit:4;stroke-dasharray:none;stroke-opacity:1"
       sodipodi:nodetypes="sccccccs" />
    <path
       inkscape:connector-curvature="0"
       d="m 3688.1625,2229.4741 c 0,-7 -8,-21 -17,-31 -20,-22 -5,-45 22,-34 13,5 16,13 11,34 -6,25 -5,26 9,8 12.1213,-55.0379 -10.2673,-55.8162 -34.4746,-59.1211 -31,12 -39.5254,37.1211 -14.5254,66.1211 13,16 24,23 24,16 z"
       id="path49-6-0"
       style="display:inline;fill:#ffffff;stroke:none;stroke-width:15;stroke-miterlimit:4;stroke-dasharray:none;stroke-opacity:1"
       sodipodi:nodetypes="sccccccs" />
  </g>
  <circle
     id="path144"
     cx="3614.8704"
     cy="2251.9551"
     r="597.35028"
     style="display:inline;opacity:1;fill:#ffffff;fill-opacity:0.26633169;stroke:#fffaff;stroke-width:16;stroke-miterlimit:4;stroke-dasharray:none;stroke-opacity:1" />
  <g
     transform="translate(-1267.1421,1221.6724)"
     style="display:none;fill:#ffffff;stroke:none"
     id="layer101-1" />
  <g
     transform="translate(-1267.1421,1221.6724)"
     id="layer102-4"
     style="display:none;fill:#ffffff;stroke:none;stroke-width:15;stroke-miterlimit:4;stroke-dasharray:none;stroke-opacity:1" />
  <g
     transform="translate(-1267.1421,1221.6724)"
     style="display:inline;fill:#ffffff;stroke:none"
     id="layer103-9" />
  <g
     transform="translate(168.3508,1570.3717)"
     style="display:inline;fill:#ffffff;stroke:none"
     id="layer104-2">
    <path
       style="display:inline;fill:none;stroke:#ffffff;stroke-width:20;stroke-miterlimit:4;stroke-dasharray:none;stroke-opacity:1"
       d="m 281.61819,273.6049 c -4.125,-0.375 -8.87891,0.1211 -13.37891,1.6211 -1.71204,0.7134 -3.01667,1.9786 -3.98438,3.8867 -2.12677,0.3048 -4.50461,0.5449 -6.36718,0.918 -3.61719,0.7246 -6.73828,1.5898 -9.39453,2.6758 -2.65625,1.0859 -4.83985,2.4004 -6.58203,3.9843 -1.74219,1.584 -3.03126,3.4454 -3.90626,5.6641 -0.4375,1.1094 -0.78613,2.3001 -1.01562,3.5938 -0.68848,3.8811 -0.45313,8.625 0.625,14.4726 0.71875,3.8985 1.81641,8.2988 3.26172,13.2422 1.44531,4.9434 3.24609,10.4375 5.37109,16.5625 6.4395,18.8231 22.49137,76.3464 39.80469,141.4648 4.74847,18.2638 9.54951,36.9285 14.19922,55.5274 2.30101,9.0944 4.55281,17.5538 6.85547,26.4453 4.41578,17.6704 8.62306,34.1411 12.55859,49.082 0.0198,0.0751 0.0388,0.1594 0.0586,0.2344 0.82518,4.3956 1.53247,8.5889 2.51953,13.2422 3.02949,13.8491 5.98909,24.5472 8.61328,32.1484 0.98709,4.1626 2.49644,9.9652 3.39843,13.8477 1.9293,8.6818 6.04424,18.3114 11.66016,28.125 1.36213,3.7075 2.52515,6.5328 3.33984,7.8906 0.18483,0.3479 0.43198,0.7052 0.625,1.0547 l -4.6289,-4.0625 6.75781,7.6953 c 2.78781,4.4847 6.42911,9.0408 10.3125,13.6133 0.008,0.0117 0.0116,0.0273 0.0195,0.0391 8.12055,12.0026 17.44492,21.6078 28.73047,29.3359 13.42929,13.6539 18.37698,16.7803 19.00391,12.2852 5.11162,3.2083 10.20522,5.9344 15.17578,8.0273 2.62117,1.1795 5.8209,2.2735 9.47266,3.2812 6.45543,2.6004 12.75032,4.7344 18.51562,5.7227 15.02977,2.505 166.10036,7.0858 353.9648,11.4453 5.1354,0.2272 11.5541,0.3522 18.9063,0.4297 31.3242,0.7145 61.2983,1.4418 94.1406,2.1289 194.63415,3.7003 353.38915,6.0187 469.57035,7.0313 6.6838,0.1214 12.6463,0.2297 19.375,0.3515 3.9486,0.3495 8.9535,0.6055 16.0547,0.6055 7.234,0.3288 12.5825,0.2488 16.9727,0 149.1675,2.6844 304.6595,5.4163 463.0273,8.0078 89.7412,1.38776 171.6797,2.68458 247.3587,3.92014 124.4035,2.03105 231.8925,3.89655 329.321,5.72826 2.1273,0.901 23.4186,1.3477 58.3203,1.3477 4.5585,0 7.5164,-0.0432 11.6016,-0.0586 552.1163,10.967 625.9924,20.8534 723.3984,53.0664 125,42 210.9922,41.9961 336.9922,0.9961 100.6922,-33.0516 173.9939,-43.0842 729.668,-54.1211 23.9198,-0.1368 41.301,-0.4114 47.9297,-0.8789 117.7313,-2.2491 259.1669,-4.6616 422.3047,-7.2461 2.5336,0.1077 4.9208,0.2539 8.1054,0.2539 5.8036,0 10.1505,-0.2608 13.7305,-0.6055 49.5664,-0.7819 90.7577,-1.4676 144.9414,-2.3046 183.447,-2.5346 389.8041,-6.0976 600.0195,-10.3321 165.7915,-2.9463 324.2133,-5.7694 437.2461,-8.0664 3.9863,0.1756 8.507,0.293 14.0625,0.293 10.9151,0 18.3354,-0.4196 22.9492,-1.0156 77.887,-1.6186 136.8738,-2.9946 169.043,-3.9844 71.2417,-2.0551 125.2355,-3.4918 167.832,-7.2656 13.0171,-0.5977 24.6111,-1.623 35.5078,-2.9102 17.5704,-1.0263 28.9328,-1.9683 31.6602,-2.8125 6.0668,-1.9158 12.514,-5.0542 19.0625,-8.9648 14.9598,-6.2018 27.3133,-14.7951 38.0078,-26.8164 8.3883,-8.4394 15.5236,-18.5948 21.9727,-30.6446 9.7916,-13.9383 17.0861,-28.1285 19.9609,-40.5859 5.2298,-21.791 12.0973,-49.193 19.2188,-77.3242 2.001,-7.8299 4.1226,-16.0371 6.25,-24.5313 24.4393,-95.5218 53.214,-202.8791 62.539,-230.1367 2.125,-6.125 3.9063,-11.6191 5.3516,-16.5625 1.4453,-4.9434 2.543,-9.3437 3.2617,-13.2422 0.3594,-1.9492 0.6318,-3.7746 0.8008,-5.4883 0.1689,-1.7136 0.2422,-3.3095 0.2148,-4.8047 -0.027,-1.4951 -0.1611,-2.8859 -0.3906,-4.1796 -0.2295,-1.2937 -0.5586,-2.4844 -0.9961,-3.5938 -0.875,-2.2187 -2.164,-4.0801 -3.9062,-5.6641 -0.8711,-0.7919 -1.8721,-1.5285 -2.9688,-2.1875 -1.0967,-0.6589 -2.3047,-1.2539 -3.6328,-1.7968 -2.6563,-1.086 -5.7773,-1.9512 -9.3945,-2.6758 -0.4982,-0.0998 -1.1823,-0.1595 -1.6992,-0.2539 -8.6429,-5.5868 -25.6235,-8.5758 -31.6407,-2.5586 -1.7541,1.949 -5.9356,12.3397 -11.0351,26.0742 -1.4213,3.3293 -2.824,6.5995 -4.3946,10.8008 -2.7808,7.439 -6.0033,16.951 -9.4922,27.5195 -3.3121,9.7955 -6.9312,20.7096 -11.0937,33.6133 -1.8325,5.5992 -3.943,12.3072 -5.8984,18.3789 -1.238,3.8695 -2.3561,7.2791 -3.6329,11.3281 -16.4876,51.6733 -35.2631,113.5331 -44.4531,150.293 -1.0537,4.2151 -2.2025,8.1133 -3.3008,12.2461 -14.9453,52.3967 -25.4745,77.136 -48.457,91.0547 -5.0096,2.1415 -10.4803,4.2864 -16.3281,6.3281 -26.4745,6.4542 -86.3943,8.376 -217.6172,8.418 -0.13,-0.0158 -0.1786,-0.0233 -0.3125,-0.0391 -18,-2 -48,-2 -65,0 -0.034,0.004 -0.044,0.0158 -0.078,0.0195 -8.7383,-0.0294 -13.6304,0.0195 -22.9102,-0.0195 -85.0941,-0.67 -228.8712,-3.5831 -392.168,-7.5781 -52.6035,-1.8213 -109.2826,-3.6555 -167.832,-5.4297 -231,-6 -526,-15 -655,-20 -27.1195,-1.0511 -61.5013,-2.2848 -92.5586,-3.457 -11.7794,-0.5031 -26.5403,-1.052 -37.4414,-1.543 -15.408,-0.4891 -43.2862,-1.5347 -65.5469,-2.3242 -20.4493,-0.7461 -35.6737,-1.2645 -55.5859,-1.9727 -57.5597,-2.1344 -119.6128,-4.5071 -173.8672,-6.6992 -21.616,-0.6723 -39.0809,-1.2999 -59.082,-1.9531 -2.4374,-0.0982 -4.8103,-0.1847 -7.3438,-0.2539 -71.4985,-2.3508 -135.7115,-4.6235 -188.5546,-6.875 -216.3907,-9.6834 -290.1938,-18.3171 -343.0274,-34.9219 -3.8715,-1.151 -7.5312,-2.0305 -11.3476,-3.0859 -59.7311,-19.3273 -105.0429,-39.2869 -152.6172,-69.1211 -1.5251,-1.3586 -3.2904,-2.3157 -5.1172,-3.125 -17.2804,-11.0539 -34.9613,-23.4671 -53.9063,-37.6758 -15.424,-11.2554 -28.72,-20.5879 -41.0742,-28.9453 -10.3405,-11.308 -37.6473,-26.4782 -68.457,-39.336 -2.3472,-1.0366 -4.7149,-2.0188 -7.0703,-2.9882 0.7769,-3.3548 -1.6709,-4.2448 -7.6954,-3.1446 -10.8742,-4.1389 -22.1159,-7.7435 -34.4921,-11.2109 -0.019,-0.005 -0.039,-0.0141 -0.059,-0.0195 -3.82,-1.7603 -8.5916,-3.3114 -14.1602,-4.3555 -0.3029,-0.0713 -0.5785,-0.1789 -0.8789,-0.2539 -1.5787,-0.568 -3.2435,-1.0986 -4.707,-1.6992 -5.4063,-2.2188 -10.0313,-4.6602 -13.9063,-7.2852 -1.9375,-1.3125 -3.6875,-2.6797 -5.2539,-4.082 -3.7286,-3.3381 -6.307,-6.9308 -8.0078,-10.7031 3.123,-7.0993 -1.2651,-14.918 -13.2422,-19.961 -0.3426,-0.1199 -0.6209,-0.1433 -0.957,-0.2539 -0.2898,-0.1465 -0.5849,-0.2784 -0.8789,-0.4101 -1.5633,-0.8427 -3.1587,-1.5567 -4.7656,-1.9336 -1.1407,-0.2676 -2.2735,-0.4102 -3.3985,-0.4102 -1.125,0 -2.2773,0.1406 -3.418,0.4102 -0.7741,0.1816 -1.5354,0.5064 -2.3046,0.8007 -2.3178,0.5231 -4.2749,1.4313 -5.6641,2.9102 -4.7003,3.1806 -8.6192,8.4289 -10.625,15.8789 -3.3006,10.7271 -16.32,20.0674 -40.3711,28.6328 -3.4221,0.9181 -6.4962,1.9487 -9.3359,3.125 -2.4013,0.7501 -4.6995,1.5074 -7.2852,2.2461 -1.4099,0.4376 -3.1073,1.1574 -4.5703,1.6406 -2.2718,0.7759 -4.6514,1.6422 -7.0312,2.5 -4.6381,1.6576 -9.0906,3.1844 -13.9844,5.1563 -8.568,-0.1045 -17.611,3.8064 -22.0117,9.1015 -30.6025,13.1288 -58.3985,27.4013 -58.3985,31.6016 0,0.5533 0.9856,0.8418 2.5,0.957 -189.7057,131.5908 -238.4995,160.4448 -539.9219,176.9141 -9.054,0.2499 -17.4775,0.6248 -24.5898,1.1328 -2.5975,0.1792 -2.6192,0.3057 -4.3945,0.4688 -79.318,3.935 -174.9258,7.3126 -293.5938,11.5234 -15.163,0.4852 -38.4298,1.309 -54.6484,1.8359 -69.1854,1.9276 -145.3423,4.2423 -228.3594,7.168 -227,8 -593.9922,19.9922 -816.9922,26.9922 -109.4549,2.9906 -191.5889,5.5146 -255.7226,7.8516 -119.95565,2.5263 -224.85355,3.9204 -312.08995,4.1015 -17.0614,-1.8151 -43.8317,-1.8537 -60.9375,-0.1953 -119.05901,-0.634 -199.46736,-3.823 -227.40232,-10.0781 -3.87333,-1.4413 -7.65775,-2.9062 -11.09376,-4.375 -22.76626,-13.7875 -33.32695,-38.1622 -48.04687,-89.5313 -1.23947,-4.631 -2.52608,-9.0301 -3.71094,-13.7695 -9.15687,-36.6275 -27.85095,-98.1811 -44.29687,-149.7461 -1.49796,-4.7534 -2.81377,-8.757 -4.25782,-13.2617 -1.80036,-5.5838 -3.75533,-11.8164 -5.44921,-16.9922 -4.30397,-13.3423 -7.98785,-24.4852 -11.38672,-34.5117 -0.67566,-2.0427 -1.48453,-4.607 -2.12891,-6.5235 -2.57226,-7.6503 -4.88672,-14.3086 -7.05078,-20.0976 -1.51074,-4.0414 -2.86667,-7.1578 -4.23828,-10.3906 -5.17978,-13.9767 -9.41922,-24.5153 -11.19141,-26.4844 -2,-2 -5.5039,-3.2383 -9.6289,-3.6133 z"
       id="path119-0"
       inkscape:connector-curvature="0"
       sodipodi:nodetypes="cccccccccscccccccccccccccccccccccccccccscsccccccsccccsccccccccccccscccsccccsccccccccccccccscccccccccccccccccccccccccccsccccccscccccccccccsccccccscccccccccccccccccc" />
  </g>
</svg>
