<?xml version="1.0" encoding="UTF-8" standalone="no"?>
<svg
   xmlns:dc="http://purl.org/dc/elements/1.1/"
   xmlns:cc="http://creativecommons.org/ns#"
   xmlns:rdf="http://www.w3.org/1999/02/22-rdf-syntax-ns#"
   xmlns:svg="http://www.w3.org/2000/svg"
   xmlns="http://www.w3.org/2000/svg"
   xmlns:sodipodi="http://sodipodi.sourceforge.net/DTD/sodipodi-0.dtd"
   xmlns:inkscape="http://www.inkscape.org/namespaces/inkscape"
   version="1.0"
   viewBox="0 0 2810 1030"
   preserveAspectRatio="xMinYMin"
   id="svg72"
   sodipodi:docname="side.svg"
   inkscape:version="0.92.3 (2405546, 2018-03-11)">
  <metadata
     id="metadata78">
    <rdf:RDF>
      <cc:Work
         rdf:about="">
        <dc:format>image/svg+xml</dc:format>
        <dc:type
           rdf:resource="http://purl.org/dc/dcmitype/StillImage" />
        <dc:title></dc:title>
      </cc:Work>
    </rdf:RDF>
  </metadata>
  <defs
     id="defs76" />
  <sodipodi:namedview
     pagecolor="#000000"
     bordercolor="#666666"
     borderopacity="1"
     objecttolerance="10"
     gridtolerance="10"
     guidetolerance="10"
     inkscape:pageopacity="0"
     inkscape:pageshadow="2"
     inkscape:window-width="1920"
     inkscape:window-height="1137"
     id="namedview74"
     showgrid="false"
     inkscape:zoom="0.24839858"
     inkscape:cx="635.61683"
     inkscape:cy="484.22143"
     inkscape:window-x="-8"
     inkscape:window-y="-8"
     inkscape:window-maximized="1"
     inkscape:current-layer="layer101" />
  <g
     id="layer101"
     fill="#040404"
     stroke="none" />
  <g
     id="layer102"
     fill="#606060"
     stroke="none"
     style="fill:#ffffff">
    <path
       d="M440 850 c-149 -8 -279 -27 -301 -43 -9 -7 -23 -26 -32 -44 -10 -18 -28 -44 -41 -58 -17 -18 -28 -48 -37 -97 l-13 -71 36 -31 c20 -17 58 -39 86 -49 48 -18 50 -19 47 -55 -4 -55 2 -62 50 -62 44 0 55 10 55 52 0 17 4 19 39 13 151 -25 544 -28 764 -6 277 29 737 126 769 162 9 10 21 19 28 19 6 0 8 5 5 10 -4 6 10 10 35 10 22 0 49 6 60 12 17 11 22 10 34 -7 8 -11 57 -78 111 -150 53 -72 100 -137 105 -145 7 -13 48 -15 281 -12 150 1 275 4 277 7 3 3 -2 22 -11 42 -9 21 -34 90 -57 154 -62 174 -53 167 -261 199 -246 39 -398 56 -535 59 -24 1 -48 8 -60 20 -27 25 -53 28 -379 51 -377 26 -554 28 -569 8 -10 -14 -28 -15 -126 -7 -63 4 -131 13 -150 18 -19 6 -46 10 -60 9 -14 0 -81 -4 -150 -8z m219 -24 c31 -8 105 -16 164 -19 89 -5 109 -3 114 9 7 19 138 19 479 -1 277 -15 419 -32 433 -49 7 -8 -28 -9 -122 -3 -73 4 -334 9 -582 10 -406 2 -453 0 -485 -15 -71 -35 -467 -109 -489 -92 -2 2 9 34 24 72 l27 70 97 11 c53 6 134 13 181 14 47 2 89 4 94 5 4 1 34 -4 65 -12z m-459 -31 c0 -13 -103 -271 -111 -280 -6 -6 -19 0 -35 17 l-27 26 52 108 c28 60 59 115 68 122 17 12 53 17 53 7z m1487 -46 l182 -10 30 -30 c16 -16 43 -32 60 -35 49 -10 36 -20 -26 -23 -96 -3 -549 -30 -693 -42 -178 -13 -401 0 -485 30 -79 27 -129 85 -94 107 39 24 616 26 1026 3z m355 -19 c118 -9 505 -59 576 -75 24 -6 62 -59 62 -87 0 -17 -21 -18 -294 -18 l-294 0 -56 75 c-44 59 -61 75 -76 70 -11 -4 -29 4 -47 19 -15 14 -23 25 -18 26 6 0 72 -5 147 -10z m-1334 -90 c99 -47 149 -53 411 -47 213 4 593 24 799 42 42 3 61 2 57 -5 -3 -5 -26 -10 -50 -10 -44 0 -85 -22 -85 -45 0 -6 -73 -28 -162 -49 -90 -21 -171 -40 -180 -43 -15 -4 -18 2 -18 35 0 55 -12 62 -95 52 -39 -5 -158 -14 -267 -20 -205 -13 -314 -7 -476 26 l-73 15 -107 -54 c-60 -30 -123 -58 -140 -62 -18 -3 -36 -13 -40 -22 -8 -14 -15 -13 -68 2 -32 9 -71 23 -86 31 l-26 14 25 67 c15 38 30 71 35 74 5 3 51 9 101 13 51 4 153 22 227 40 l135 34 19 -34 c12 -20 37 -42 64 -54z m7 -95 c145 -27 504 -21 708 11 l37 6 0 -41 c0 -47 12 -42 -170 -71 -274 -42 -705 -57 -890 -31 -108 16 -123 24 -73 39 22 6 84 34 139 62 66 34 107 50 124 47 14 -3 70 -13 125 -22z m2011 -100 c18 -49 33 -96 33 -102 1 -10 -56 -13 -253 -13 l-255 0 -71 98 -71 97 258 5 c142 3 273 6 292 5 34 0 34 -1 67 -90z m-2460 -53 c-2 -21 -9 -28 -30 -30 -24 -3 -26 -1 -26 37 0 40 0 40 29 30 24 -9 29 -15 27 -37z"
       id="path5"
       style="fill:#ffffff" />
  </g>
  <g
     id="layer103"
     fill="#999999"
     stroke="none"
     style="fill:#ffffff">
    <path
       d="M280 834 c-126 -17 -151 -28 -176 -77 -9 -17 -26 -43 -39 -57 -12 -14 -25 -41 -29 -60 -19 -108 -19 -104 6 -127 13 -13 51 -34 84 -47 l59 -24 5 -49 5 -48 40 0 c38 0 40 2 45 33 3 18 8 33 13 34 4 0 51 -5 105 -12 118 -16 458 -16 637 -1 230 21 548 78 788 142 21 6 37 16 37 24 0 8 7 15 15 15 8 0 15 5 15 10 0 6 17 10 37 10 20 0 44 7 54 16 10 9 22 13 27 10 5 -3 62 -77 126 -166 l118 -160 271 2 c175 2 271 7 270 13 -8 33 -106 293 -120 316 -10 16 -31 33 -48 38 -52 17 -458 71 -595 80 -107 7 -137 12 -159 29 -34 25 -140 37 -496 57 -333 19 -429 19 -448 1 -11 -12 -34 -12 -133 -4 -205 17 -391 17 -514 2z m425 -12 c28 -6 87 -13 133 -15 74 -5 85 -3 101 15 19 19 24 19 248 8 273 -14 575 -36 623 -46 48 -9 68 -26 43 -35 -15 -6 -15 -8 -2 -8 9 -1 31 -15 49 -31 18 -16 37 -30 44 -30 6 0 -4 10 -21 21 -18 12 -33 26 -33 31 0 17 212 0 485 -38 204 -29 254 -39 271 -56 17 -15 124 -285 124 -312 0 -3 -116 -6 -258 -6 l-257 0 -77 105 -77 104 77 4 77 3 -81 2 -80 2 -55 75 c-51 70 -82 99 -76 72 1 -7 10 -15 20 -19 16 -7 16 -8 0 -28 -12 -14 -30 -20 -57 -20 -33 0 -45 -6 -67 -31 -23 -27 -43 -35 -160 -64 -153 -37 -450 -89 -619 -106 -163 -18 -604 -18 -707 0 -64 10 -83 17 -83 30 -1 13 -3 12 -12 -4 -7 -11 -11 -35 -9 -52 2 -32 1 -33 -34 -33 l-37 0 3 46 3 47 -52 19 c-29 11 -52 24 -52 29 0 6 -4 8 -9 5 -5 -3 -21 4 -36 15 -20 17 -25 27 -20 46 9 38 92 208 108 221 7 6 33 14 58 17 24 3 52 8 63 11 31 10 237 22 316 19 41 -2 98 -8 125 -13z"
       id="path8"
       style="fill:#ffffff" />
    <path
       d="M903 773 c48 -2 125 -2 170 0 45 1 6 3 -88 3 -93 0 -130 -2 -82 -3z"
       id="path10"
       style="fill:#ffffff" />
    <path
       d="M713 763 c9 -2 25 -2 35 0 9 3 1 5 -18 5 -19 0 -27 -2 -17 -5z"
       id="path12"
       style="fill:#ffffff" />
    <path
       d="M1368 763 c39 -2 105 -2 145 0 39 1 7 3 -73 3 -80 0 -112 -2 -72 -3z"
       id="path14"
       style="fill:#ffffff" />
    <path
       d="M640 745 c-33 -19 -10 -19 26 0 16 8 22 15 14 15 -8 -1 -26 -7 -40 -15z"
       id="path16"
       style="fill:#ffffff" />
    <path
       d="M1667 753 c18 -2 50 -2 70 0 21 2 7 4 -32 4 -38 0 -55 -2 -38 -4z"
       id="path18"
       style="fill:#ffffff" />
    <path
       d="M660 676 c17 -21 70 -49 78 -42 3 3 1 6 -5 6 -6 0 -28 12 -49 26 -21 15 -32 19 -24 10z"
       id="path20"
       style="fill:#ffffff" />
    <path
       d="M198 653 c12 -2 30 -2 40 0 9 3 -1 5 -23 4 -22 0 -30 -2 -17 -4z"
       id="path22"
       style="fill:#ffffff" />
    <path
       d="M1808 633 c12 -2 32 -2 45 0 12 2 2 4 -23 4 -25 0 -35 -2 -22 -4z"
       id="path24"
       style="fill:#ffffff" />
    <path
       d="M1643 623 c15 -2 39 -2 55 0 15 2 2 4 -28 4 -30 0 -43 -2 -27 -4z"
       id="path26"
       style="fill:#ffffff" />
    <path
       d="M1483 613 c15 -2 37 -2 50 0 12 2 0 4 -28 4 -27 0 -38 -2 -22 -4z"
       id="path28"
       style="fill:#ffffff" />
    <path
       d="M1328 603 c12 -2 30 -2 40 0 9 3 -1 5 -23 4 -22 0 -30 -2 -17 -4z"
       id="path30"
       style="fill:#ffffff" />
    <path
       d="M928 593 c17 -2 47 -2 65 0 17 2 3 4 -33 4 -36 0 -50 -2 -32 -4z"
       id="path32"
       style="fill:#ffffff" />
    <path
       d="M1203 593 c15 -2 37 -2 50 0 12 2 0 4 -28 4 -27 0 -38 -2 -22 -4z"
       id="path34"
       style="fill:#ffffff" />
    <path
       d="M458 529 c-32 -16 -58 -32 -58 -34 0 -5 119 52 129 61 13 12 -22 -1 -71 -27z"
       id="path36"
       style="fill:#ffffff" />
    <path
       d="M1243 543 c9 -2 25 -2 35 0 9 3 1 5 -18 5 -19 0 -27 -2 -17 -5z"
       id="path38"
       style="fill:#ffffff" />
    <path
       d="M1078 533 c12 -2 30 -2 40 0 9 3 -1 5 -23 4 -22 0 -30 -2 -17 -4z"
       id="path40"
       style="fill:#ffffff" />
  </g>
  <g
     id="layer104"
     fill="#e1e1e1"
     stroke="none"
     style="fill:#ffffff">
    <path
       d="M550 840 c52 -4 122 -10 155 -13 l60 -6 -50 10 c-27 6 -97 12 -155 13 l-105 3 95 -7z"
       id="path43"
       style="fill:#ffffff" />
    <path
       d="M926 834 c-13 -12 -29 -15 -69 -10 -37 3 -43 3 -22 -3 47 -13 93 -12 97 2 3 8 38 14 104 18 l99 5 -97 2 c-77 2 -100 -1 -112 -14z"
       id="path45"
       style="fill:#ffffff" />
    <path
       d="M348 833 c17 -2 47 -2 65 0 17 2 3 4 -33 4 -36 0 -50 -2 -32 -4z"
       id="path47"
       style="fill:#ffffff" />
    <path
       d="M1183 833 c26 -2 68 -2 95 0 26 2 4 3 -48 3 -52 0 -74 -1 -47 -3z"
       id="path49"
       style="fill:#ffffff" />
    <path
       d="M215 823 c-53 -7 -86 -25 -102 -57 -8 -17 -27 -43 -41 -58 -14 -15 -29 -47 -33 -70 -4 -24 -11 -55 -15 -70 -8 -36 27 -69 107 -100 l59 -23 0 -47 0 -48 45 0 45 0 0 36 c0 36 1 36 33 30 17 -4 64 -9 102 -11 l70 -4 -75 9 c-41 6 -87 14 -102 19 -33 12 -38 7 -38 -36 0 -31 -2 -33 -35 -33 -35 0 -35 0 -35 45 0 39 -3 47 -25 55 -63 24 -112 50 -129 69 -18 19 -18 25 -5 63 7 24 12 50 11 59 -2 10 6 23 16 31 11 7 28 31 40 54 29 57 44 66 130 80 69 10 50 17 -23 7z"
       id="path51"
       style="fill:#ffffff" />
    <path
       d="M1425 820 c55 -4 129 -7 165 -7 59 0 57 1 -25 8 -49 4 -124 7 -165 6 -73 0 -72 -1 25 -7z"
       id="path53"
       style="fill:#ffffff" />
    <path
       d="M1661 806 c2 -2 35 -6 73 -9 41 -3 63 -1 55 4 -13 8 -137 13 -128 5z"
       id="path55"
       style="fill:#ffffff" />
    <path
       d="M1826 783 c12 -2 30 -13 40 -24 15 -16 29 -19 103 -17 l86 1 -80 7 c-82 6 -115 15 -115 31 0 5 -12 8 -27 8 -22 -1 -24 -3 -7 -6z"
       id="path57"
       style="fill:#ffffff" />
    <path
       d="M2100 733 c68 -6 532 -73 542 -79 11 -7 34 -52 53 -105 36 -99 75 -213 75 -221 0 -4 -117 -8 -259 -8 l-259 0 -124 169 c-120 165 -123 169 -141 150 -12 -12 -31 -19 -57 -19 -39 0 -80 -26 -80 -50 0 -5 -17 -14 -37 -19 -34 -9 -256 -63 -308 -74 -19 -5 -19 -5 1 -6 11 0 91 16 178 38 140 34 161 42 186 70 22 24 37 31 65 31 19 0 44 5 55 12 10 7 21 10 23 8 2 -3 55 -75 117 -160 63 -85 118 -158 124 -162 15 -10 508 -10 523 0 9 6 -1 44 -36 143 -52 144 -72 189 -93 207 -17 14 -486 83 -548 80 l-45 -1 45 -4z"
       id="path59"
       style="fill:#ffffff" />
    <path
       d="M1300 445 c-36 -7 -54 -13 -40 -13 14 0 57 5 95 12 39 8 57 14 40 14 -16 0 -59 -6 -95 -13z"
       id="path61"
       style="fill:#ffffff" />
    <path
       d="M1183 423 c9 -2 25 -2 35 0 9 3 1 5 -18 5 -19 0 -27 -2 -17 -5z"
       id="path63"
       style="fill:#ffffff" />
    <path
       d="M1093 413 c15 -2 37 -2 50 0 12 2 0 4 -28 4 -27 0 -38 -2 -22 -4z"
       id="path65"
       style="fill:#ffffff" />
    <path
       d="M957 403 c18 -2 50 -2 70 0 21 2 7 4 -32 4 -38 0 -55 -2 -38 -4z"
       id="path67"
       style="fill:#ffffff" />
    <path
       d="M593 393 c59 -2 155 -2 215 0 59 1 10 3 -108 3 -118 0 -167 -2 -107 -3z"
       id="path69"
       style="fill:#ffffff" />
  </g>
</svg>
